<svg width="128" height="128" viewBox="0 0 128 128" fill="none" xmlns="http://www.w3.org/2000/svg">
<circle cx="64" cy="64" r="64" fill="#8E3939"/>
<circle cx="64" cy="64" r="63" stroke="black" stroke-opacity="0.5" stroke-width="2"/>
<g filter="url(#filter0_d)">
<path d="M45.3264 67.192C45.3264 68.68 45.2304 70.024 45.0384 71.224H14.7264C14.9664 74.392 16.1424 76.936 18.2544 78.856C20.3664 80.776 22.9584 81.736 26.0304 81.736C30.4464 81.736 33.5664 79.888 35.3904 76.192H44.2464C43.0464 79.84 40.8624 82.84 37.6944 85.192C34.5744 87.496 30.6864 88.648 26.0304 88.648C22.2384 88.648 18.8304 87.808 15.8064 86.128C12.8304 84.4 10.4784 82 8.75041 78.928C7.07041 75.808 6.23041 72.208 6.23041 68.128C6.23041 64.048 7.04641 60.472 8.67841 57.4C10.3584 54.28 12.6864 51.88 15.6624 50.2C18.6864 48.52 22.1424 47.68 26.0304 47.68C29.7744 47.68 33.1104 48.496 36.0384 50.128C38.9664 51.76 41.2464 54.064 42.8784 57.04C44.5104 59.968 45.3264 63.352 45.3264 67.192ZM36.7584 64.6C36.7104 61.576 35.6304 59.152 33.5184 57.328C31.4064 55.504 28.7904 54.592 25.6704 54.592C22.8384 54.592 20.4144 55.504 18.3984 57.328C16.3824 59.104 15.1824 61.528 14.7984 64.6H36.7584ZM61.6119 54.232C63.0039 52.312 64.8999 50.752 67.2999 49.552C69.7479 48.304 72.4599 47.68 75.4359 47.68C78.9399 47.68 82.1079 48.52 84.9399 50.2C87.7719 51.88 90.0039 54.28 91.6359 57.4C93.2679 60.472 94.0839 64 94.0839 67.984C94.0839 71.968 93.2679 75.544 91.6359 78.712C90.0039 81.832 87.7479 84.28 84.8679 86.056C82.0359 87.784 78.8919 88.648 75.4359 88.648C72.3639 88.648 69.6279 88.048 67.2279 86.848C64.8759 85.648 63.0039 84.112 61.6119 82.24V88H53.4039V34.72H61.6119V54.232ZM85.7319 67.984C85.7319 65.248 85.1559 62.896 84.0039 60.928C82.8999 58.912 81.4119 57.4 79.5399 56.392C77.7159 55.336 75.7479 54.808 73.6359 54.808C71.5719 54.808 69.6039 55.336 67.7319 56.392C65.9079 57.448 64.4199 58.984 63.2679 61C62.1639 63.016 61.6119 65.392 61.6119 68.128C61.6119 70.864 62.1639 73.264 63.2679 75.328C64.4199 77.344 65.9079 78.88 67.7319 79.936C69.6039 80.992 71.5719 81.52 73.6359 81.52C75.7479 81.52 77.7159 80.992 79.5399 79.936C81.4119 78.832 82.8999 77.248 84.0039 75.184C85.1559 73.12 85.7319 70.72 85.7319 67.984ZM110.409 54.088C111.609 52.072 113.193 50.512 115.161 49.408C117.177 48.256 119.553 47.68 122.289 47.68V56.176H120.201C116.985 56.176 114.537 56.992 112.857 58.624C111.225 60.256 110.409 63.088 110.409 67.12V88H102.201V48.328H110.409V54.088Z" fill="white"/>
</g>
<defs>
<filter id="filter0_d" x="2.23035" y="34.72" width="124.058" height="61.928" filterUnits="userSpaceOnUse" color-interpolation-filters="sRGB">
<feFlood flood-opacity="0" result="BackgroundImageFix"/>
<feColorMatrix in="SourceAlpha" type="matrix" values="0 0 0 0 0 0 0 0 0 0 0 0 0 0 0 0 0 0 127 0" result="hardAlpha"/>
<feOffset dy="4"/>
<feGaussianBlur stdDeviation="2"/>
<feComposite in2="hardAlpha" operator="out"/>
<feColorMatrix type="matrix" values="0 0 0 0 0 0 0 0 0 0 0 0 0 0 0 0 0 0 0.35 0"/>
<feBlend mode="normal" in2="BackgroundImageFix" result="effect1_dropShadow"/>
<feBlend mode="normal" in="SourceGraphic" in2="effect1_dropShadow" result="shape"/>
</filter>
</defs>
</svg>
